<?xml version="1.0" encoding="UTF-8" standalone="no"?>
<svg
   xmlns:dc="http://purl.org/dc/elements/1.1/"
   xmlns:cc="http://creativecommons.org/ns#"
   xmlns:rdf="http://www.w3.org/1999/02/22-rdf-syntax-ns#"
   xmlns:svg="http://www.w3.org/2000/svg"
   xmlns="http://www.w3.org/2000/svg"
   xmlns:sodipodi="http://sodipodi.sourceforge.net/DTD/sodipodi-0.dtd"
   xmlns:inkscape="http://www.inkscape.org/namespaces/inkscape"
   version="1.1"
   id="Capa_1"
   x="0px"
   y="0px"
   viewBox="0 0 1024 1024"
   style="enable-background:new 0 0 1024 1024;"
   xml:space="preserve"
   sodipodi:docname="Procreate.svg"
   inkscape:version="1.0.2-2 (e86c870879, 2021-01-15)"><metadata
   id="metadata108"><rdf:RDF><cc:Work
       rdf:about=""><dc:format>image/svg+xml</dc:format><dc:type
         rdf:resource="http://purl.org/dc/dcmitype/StillImage" /><dc:title></dc:title></cc:Work></rdf:RDF></metadata><defs
   id="defs106"><filter
     style="color-interpolation-filters:sRGB;"
     inkscape:label="Invert"
     id="filter124"><feColorMatrix
       values="1 0 0 0 0 0 1 0 0 0 0 0 1 0 0 -0.21 -0.72 -0.07 2 0 "
       result="fbSourceGraphic"
       id="feColorMatrix122" /><feColorMatrix
       result="fbSourceGraphicAlpha"
       in="fbSourceGraphic"
       values="0 0 0 -1 0 0 0 0 -1 0 0 0 0 -1 0 0 0 0 1 0"
       id="feColorMatrix126" /><feColorMatrix
       id="feColorMatrix128"
       values="-1 0 0 0 1 0 -1 0 0 1 0 0 -1 0 1 -0.21 -0.72 -0.07 2 0 "
       result="fbSourceGraphic"
       in="fbSourceGraphic" /><feColorMatrix
       result="fbSourceGraphicAlpha"
       in="fbSourceGraphic"
       values="0 0 0 -1 0 0 0 0 -1 0 0 0 0 -1 0 0 0 0 1 0"
       id="feColorMatrix130" /><feColorMatrix
       id="feColorMatrix132"
       values="-1 0 0 0 1 0 -1 0 0 1 0 0 -1 0 1 0.21 0.72 0.07 1 0 "
       result="color2"
       in="fbSourceGraphic" /></filter></defs><sodipodi:namedview
   pagecolor="#ffffff"
   bordercolor="#666666"
   borderopacity="1"
   objecttolerance="10"
   gridtolerance="10"
   guidetolerance="10"
   inkscape:pageopacity="0"
   inkscape:pageshadow="2"
   inkscape:window-width="1781"
   inkscape:window-height="990"
   id="namedview104"
   showgrid="false"
   inkscape:zoom="0.69605824"
   inkscape:cx="404.27268"
   inkscape:cy="543.47118"
   inkscape:window-x="0"
   inkscape:window-y="166"
   inkscape:window-maximized="0"
   inkscape:current-layer="g99" />
<style
   type="text/css"
   id="style2">
	.st0{fill:#242424;}
	.st1{fill:url(#SVGID_1_);}
	.st2{fill:url(#SVGID_00000091735177979292553910000003467548787510439076_);}
	.st3{fill:url(#SVGID_00000166667592248123399630000017980745767473324433_);}
	.st4{fill:url(#SVGID_00000010295546894301292310000016863132700152985226_);}
	.st5{fill:url(#SVGID_00000066483551048482236430000001868009971166561202_);}
	.st6{fill:url(#SVGID_00000101809668036817937460000002835582579152762508_);}
	.st7{fill:url(#SVGID_00000005950625399547255190000005840225558190807682_);}
</style>
<g
   id="g101">
	<g
   id="g6">
		
	</g>
	<g
   id="g99">
		
			<linearGradient
   id="SVGID_1_"
   gradientUnits="userSpaceOnUse"
   x1="507.1033"
   y1="398.624"
   x2="490.0779"
   y2="145.6835"
   gradientTransform="matrix(1 0 0 -1 0 1024)">
			<stop
   offset="0"
   style="stop-color:#FD5200"
   id="stop8" />
			<stop
   offset="0.2722"
   style="stop-color:#FFDC38"
   id="stop10" />
			<stop
   offset="0.9626"
   style="stop-color:#F3FEAB"
   id="stop12" />
		</linearGradient>
		<path
   class="st1"
   d="M478.9,446.3c-114.3,34-316.2,111.9-325.9,428c36.5-170.2,126.5-194.6,291.9-233.5    C610.3,602,700.2,558.2,800,439c99.7-119.2,65.7-289.4,65.7-289.4c0,92.4-65.7,153.2-128.9,197S593.2,412.3,478.9,446.3z"
   id="path15"
   style="fill:#000000" />
		<g
   id="g39"
   style="fill:#000000">
			
				<linearGradient
   id="SVGID_00000039092326242315265110000002040857071190454930_"
   gradientUnits="userSpaceOnUse"
   x1="348.9975"
   y1="915.587"
   x2="178.6537"
   y2="258.2368"
   gradientTransform="matrix(1 0 0 -1 0 1024)">
				<stop
   offset="0.4072"
   style="stop-color:#9E010A"
   id="stop17" />
				<stop
   offset="0.6244"
   style="stop-color:#FC56A4"
   id="stop19" />
				<stop
   offset="0.689"
   style="stop-color:#F2A780"
   id="stop21" />
				<stop
   offset="0.7431"
   style="stop-color:#FFC78A"
   id="stop23" />
			</linearGradient>
			<path
   style="fill:#000000"
   d="M153,874.4     C153,874.4,153,874.3,153,874.4c0.3-8.2,0.7-16.1,1.2-23.9C153.3,858.9,152.8,866.9,153,874.4z"
   id="path26" />
			
				<linearGradient
   id="SVGID_00000181794001271669831550000005292106889239398333_"
   gradientUnits="userSpaceOnUse"
   x1="541.5256"
   y1="308.186"
   x2="478.4854"
   y2="761.3444">
				<stop
   offset="0.4072"
   style="stop-color:#9E010A"
   id="stop28" />
				<stop
   offset="0.6244"
   style="stop-color:#FC56A4"
   id="stop30" />
				<stop
   offset="0.689"
   style="stop-color:#F2A780"
   id="stop32" />
				<stop
   offset="0.7431"
   style="stop-color:#FFC78A"
   id="stop34" />
			</linearGradient>
			<path
   style="fill:#000000"
   d="M578.4,601.8     C492.5,618,405,616.1,347.6,631.2C245.5,657.9,160.4,779.5,153,874.3c0.3-8.1,0.7-16,1.2-23.9c11.3-103.2,106.4-272.5,315-365.2     c66.4-29.5,126.2-60.8,178.2-92.8c33.6-13.1,63-27.6,89.3-45.8c63.2-43.8,128.9-104.6,128.9-197c0,0,5.4,138.8-39.6,257.6     c-6.2,11.3-13.2,22.2-21.2,32.5C744.2,518.4,672.7,566.6,578.4,601.8z"
   id="path37" />
		</g>
		
			<linearGradient
   id="SVGID_00000005953729597109592500000009902044977931578255_"
   gradientUnits="userSpaceOnUse"
   x1="670.5145"
   y1="618.9064"
   x2="191.3858"
   y2="273.548"
   gradientTransform="matrix(1 0 0 -1 0 1024)">
			<stop
   offset="7.537688e-02"
   style="stop-color:#0C64CC"
   id="stop41" />
			<stop
   offset="0.3348"
   style="stop-color:#1F9FE3"
   id="stop43" />
			<stop
   offset="0.4851"
   style="stop-color:#1B9DEB"
   id="stop45" />
			<stop
   offset="0.7569"
   style="stop-color:#72F07F"
   id="stop47" />
			<stop
   offset="0.8584"
   style="stop-color:#DBFEC8"
   id="stop49" />
			<stop
   offset="0.9913"
   style="stop-color:#F6F9B1"
   id="stop51" />
		</linearGradient>
		<path
   style="fill:#000000"
   d="M154.4,846.4c-0.6,9.1-1.1,18.4-1.4,27.9    C152.4,865.7,152.9,856.3,154.4,846.4c20.4-292.9,213.6-367.1,324.5-400.1c114.3-34,194.6-55.9,257.8-99.7s128.9-104.6,128.9-197    c0,0,34.1,170.2-65.7,289.4c-99.7,119.2-182.4,70.5-347.8,109.4C301.2,584,170.5,743.1,154.4,846.4z"
   id="path54" />
		<g
   id="g82"
   style="fill:#000000">
			
				<linearGradient
   id="SVGID_00000036950125755622768890000013805321087796358311_"
   gradientUnits="userSpaceOnUse"
   x1="656.4335"
   y1="424.4771"
   x2="450.1779"
   y2="547.248"
   gradientTransform="matrix(1 0 0 -1 0 1024)">
				<stop
   offset="2.512563e-02"
   style="stop-color:#4226A2"
   id="stop56" />
				<stop
   offset="0.2769"
   style="stop-color:#7357CB"
   id="stop58" />
				<stop
   offset="0.4721"
   style="stop-color:#4783DF"
   id="stop60" />
				<stop
   offset="0.5228"
   style="stop-color:#3B8FE4"
   id="stop62" />
				<stop
   offset="0.5797"
   style="stop-color:#3B9DE4"
   id="stop64" />
				<stop
   offset="0.6561"
   style="stop-color:#3BA7E4"
   id="stop66" />
				<stop
   offset="0.7412"
   style="stop-color:#3BABE4"
   id="stop68" />
			</linearGradient>
			<path
   style="fill:#000000"
   d="M410.8,565.5     c155.7-29.2,252.9-26.8,360-141.1c107-114.3,94.8-274.8,94.8-274.8c0,92.4-65.7,153.2-128.9,197c-26.4,18.3-55.8,32.7-89.3,45.8     c-52,32-123.9,64.7-190.3,94.2c-208.6,92.7-291.6,260.6-302.9,363.8c-0.5,7.8-0.9,15.7-1.2,23.9     C160.4,779.4,255.2,594.7,410.8,565.5z"
   id="path71" />
			
				<linearGradient
   id="SVGID_00000174597707216319922470000005333013460560930436_"
   gradientUnits="userSpaceOnUse"
   x1="409.4708"
   y1="9.2813"
   x2="205.174"
   y2="130.8862"
   gradientTransform="matrix(1 0 0 -1 0 1024)">
				<stop
   offset="0"
   style="stop-color:#4226A2"
   id="stop73" />
				<stop
   offset="0.3221"
   style="stop-color:#7357CB"
   id="stop75" />
				<stop
   offset="0.6283"
   style="stop-color:#3B8FE4"
   id="stop77" />
			</linearGradient>
			<path
   style="fill:#000000"
   d="M153,874.4     C153,874.4,153,874.3,153,874.4c0.3-8.2,0.7-16.1,1.2-23.9C153.3,858.9,152.8,866.9,153,874.4z"
   id="path80" />
		</g>
		
			<linearGradient
   id="SVGID_00000063608329261139819030000010898274995102719129_"
   gradientUnits="userSpaceOnUse"
   x1="882.3486"
   y1="770.5908"
   x2="169.7424"
   y2="213.6404"
   gradientTransform="matrix(1 0 0 -1 0 1024)">
			<stop
   offset="0"
   style="stop-color:#7C4ADF"
   id="stop84" />
			<stop
   offset="0.3459"
   style="stop-color:#E251D8"
   id="stop86" />
			<stop
   offset="0.7297"
   style="stop-color:#FCDFBC"
   id="stop88" />
			<stop
   offset="0.8312"
   style="stop-color:#F6F8B0"
   id="stop90" />
			<stop
   offset="0.9186"
   style="stop-color:#FFFFF2"
   id="stop92" />
			<stop
   offset="0.9894"
   style="stop-color:#F6F8B0"
   id="stop94" />
		</linearGradient>
		<path
   style="fill:#000000;filter:url(#filter124)"
   d="M520.3,470.7    C235.7,524.2,150.6,775.5,153,874.4c7.3-94.8,90-204.3,197-262.7c158.1-80.3,323.5-36.5,437.8-153.2    c114.3-116.7,77.8-308.9,77.8-308.9c0,92.4-34.1,180-94.9,231.1C710,431.7,588.4,457.7,520.3,470.7z"
   id="path97" />
	</g>
</g>
</svg>
